<?xml version="1.0" standalone="no"?>
<!DOCTYPE svg PUBLIC "-//W3C//DTD SVG 20010904//EN"
 "http://www.w3.org/TR/2001/REC-SVG-20010904/DTD/svg10.dtd">
<svg version="1.0" xmlns="http://www.w3.org/2000/svg"
 width="2834.000000pt" height="1453.000000pt" viewBox="0 0 2834.000000 1453.000000"
 preserveAspectRatio="xMidYMid meet">

<g transform="translate(0.000000,1453.000000) scale(0.100000,-0.100000)"
fill="#000000" stroke="none">
<path d="M20601 14436 c-48 -33 -59 -36 -122 -36 l-69 0 0 -669 0 -669 31 -12
c42 -18 69 -65 69 -119 0 -83 -93 -141 -173 -108 -48 21 -72 60 -72 118 0 39
5 53 30 79 16 17 40 33 52 36 l23 6 0 679 0 679 -45 0 c-25 0 -56 7 -68 15
-20 13 -28 11 -91 -20 -74 -38 -102 -41 -171 -23 -35 9 -77 9 -192 0 -82 -7
-174 -17 -205 -23 l-58 -11 0 -819 0 -819 355 -519 355 -519 0 -1846 0 -1846
44 0 c29 0 51 6 62 17 16 16 18 15 41 -12 13 -17 35 -47 49 -67 27 -42 46 -55
101 -66 34 -7 40 -12 55 -57 34 -101 23 -195 -41 -375 -27 -74 -31 -97 -30
-180 1 -75 -3 -105 -18 -140 -33 -75 -56 -197 -51 -271 4 -54 13 -80 51 -150
55 -100 63 -109 193 -197 121 -82 175 -147 228 -273 173 -413 171 -408 239
-478 59 -60 65 -71 70 -117 3 -29 17 -78 30 -110 28 -65 25 -91 -19 -157 l-26
-39 28 -96 c15 -53 37 -119 49 -146 12 -28 30 -79 40 -114 17 -57 17 -72 6
-140 -7 -42 -17 -93 -23 -112 -13 -42 -103 -183 -145 -225 -16 -17 -47 -73
-68 -125 -35 -87 -39 -103 -40 -195 -1 -104 -9 -134 -47 -186 -22 -30 -23 -38
-23 -244 0 -198 1 -215 20 -238 83 -104 208 -273 231 -313 16 -26 39 -88 51
-136 17 -65 33 -101 63 -140 82 -108 130 -229 130 -326 l0 -44 31 26 c17 14
37 26 45 26 12 0 14 330 14 2393 l0 2393 703 463 704 463 6 546 c4 301 7 645
7 764 l0 217 -395 601 -395 602 -2 1056 -3 1057 -85 58 -85 59 -75 -7 c-41 -3
-99 -11 -127 -18 l-53 -12 0 -2020 0 -2020 38 -16 c40 -17 72 -65 72 -109 0
-34 -29 -87 -58 -106 -31 -20 -97 -23 -130 -5 -33 17 -62 70 -62 111 0 46 33
99 70 113 l30 11 0 2034 c0 2020 0 2034 -20 2050 -15 13 -23 39 -31 97 -6 44
-16 91 -22 105 -6 14 -12 26 -12 27 0 1 -32 7 -70 13 -39 5 -113 22 -166 36
l-97 27 -54 -23 -54 -22 -62 31 c-34 17 -64 31 -67 31 -3 0 -5 -866 -5 -1925
0 -1758 1 -1925 16 -1925 9 0 31 -15 50 -34 28 -28 34 -42 34 -75 0 -82 -49
-131 -130 -131 -32 0 -48 7 -76 33 -66 60 -52 159 29 200 l37 19 0 1934 0
1934 -35 55 c-38 58 -49 64 -81 40 -27 -20 -31 -19 -39 13 -10 39 -33 61 -72
68 -33 6 -35 9 -29 37 3 16 6 40 6 53 0 20 14 31 80 64 82 41 93 53 104 108 7
39 -5 68 -42 99 l-26 22 24 51 c13 28 30 56 38 62 22 19 52 86 46 103 -15 37
-69 45 -105 16 l-24 -20 -31 36 c-31 36 -32 37 -120 41 -89 4 -89 4 -143 -32z"/>
<path d="M19214 14306 l-111 -74 -59 5 c-56 5 -64 2 -144 -41 -47 -25 -93 -46
-102 -46 -17 0 -18 -41 -18 -720 l0 -720 350 -512 350 -512 0 -1663 0 -1663
25 0 c32 0 127 -47 179 -89 21 -17 42 -31 45 -31 12 0 51 -90 51 -118 0 -37
44 -128 69 -141 11 -6 38 -11 60 -11 22 0 61 -5 88 -11 40 -9 56 -8 93 6 25
10 62 20 83 22 l37 5 0 1842 -1 1841 -349 510 -349 510 -1 832 0 831 -77 7
c-43 4 -85 8 -93 11 -9 2 -65 -29 -126 -70z"/>
<path d="M18255 14305 c-5 -2 -22 -6 -37 -9 -19 -4 -34 -19 -48 -46 -20 -39
-20 -56 -20 -1422 l0 -1383 260 -395 260 -395 0 -1258 0 -1257 40 20 c23 12
58 36 79 55 37 33 42 35 114 35 62 0 80 4 94 19 13 13 39 21 88 25 39 4 112
21 163 37 51 16 115 30 142 32 l50 2 0 1656 0 1656 -350 512 -350 512 0 729 0
730 -30 0 c-22 0 -30 5 -30 18 0 37 -12 40 -85 21 -81 -21 -125 -23 -178 -8
-46 12 -105 62 -113 95 -6 22 -22 28 -49 19z"/>
<path d="M18102 14113 c-1 -6 -27 -45 -59 -87 -65 -87 -94 -105 -228 -137 -49
-11 -102 -27 -117 -35 l-28 -15 0 -1907 0 -1907 -210 -210 -210 -210 0 -807 0
-808 28 -7 c15 -5 59 -8 97 -7 81 1 143 23 244 83 73 44 138 61 237 61 l64 0
2 547 c3 513 4 548 21 551 16 3 17 -28 17 -546 l0 -549 78 -6 c43 -3 81 -2 86
4 20 19 72 8 167 -36 54 -25 106 -45 116 -45 10 0 65 19 123 43 l105 42 3
1253 2 1254 -262 396 -263 397 -5 1350 c-3 743 -6 1345 -8 1338z"/>
<path d="M17573 13744 c-41 -46 -53 -66 -53 -93 0 -23 -19 -65 -66 -141 l-65
-107 10 -78 c6 -42 8 -82 4 -88 -4 -7 -40 -57 -80 -112 -40 -54 -73 -109 -73
-121 0 -19 -7 -22 -71 -28 -39 -3 -75 -9 -80 -12 -5 -3 -9 -444 -9 -1003 l0
-997 -355 -520 -355 -519 0 -608 0 -607 25 -39 c13 -22 29 -42 35 -46 6 -4 22
-24 35 -46 16 -24 43 -48 74 -64 28 -13 87 -56 133 -95 242 -206 495 -400 520
-400 4 0 8 359 8 797 l0 798 210 210 210 210 -2 1885 -3 1884 -52 -60z"/>
<path d="M22680 13566 c-47 -13 -101 -30 -120 -38 -56 -24 -150 -99 -150 -119
0 -10 11 -47 23 -81 45 -120 45 -118 -34 -192 -38 -36 -73 -66 -78 -66 -4 0
-20 9 -34 20 -14 11 -28 20 -31 20 -3 0 -6 -462 -6 -1027 l0 -1028 400 -609
401 -609 -7 -777 -7 -778 -704 -463 -703 -463 0 -2381 0 -2380 36 -20 c106
-57 74 -219 -46 -232 -37 -4 -52 0 -82 21 l-38 25 0 -29 c0 -45 37 -227 65
-321 14 -46 36 -127 49 -179 14 -53 43 -136 66 -185 23 -50 45 -107 47 -127 6
-44 10 -48 93 -91 l62 -32 108 -250 c59 -137 117 -270 129 -293 12 -24 26 -68
31 -98 8 -45 6 -61 -11 -100 -20 -43 -20 -49 -6 -119 9 -41 28 -101 42 -134
26 -56 30 -60 93 -87 37 -15 94 -42 127 -60 93 -50 110 -51 208 -10 100 41
167 54 332 61 66 3 148 8 183 11 l62 6 0 478 0 478 -350 512 -350 513 0 2522
0 2522 705 464 705 464 0 266 c0 146 3 488 6 760 l6 494 -396 603 -396 602 0
1210 0 1210 -35 14 c-19 8 -56 35 -83 60 -75 71 -160 82 -312 42z"/>
<path d="M23140 12253 l0 -1198 399 -609 400 -610 -6 -730 c-3 -402 -8 -753
-12 -781 l-6 -49 -700 -461 -700 -461 -2 -2500 -3 -2499 355 -519 355 -519 0
-479 c0 -263 2 -478 4 -478 3 0 55 11 118 24 62 13 148 30 190 36 l77 13 118
100 c65 55 166 138 226 186 l107 86 0 248 0 249 -355 519 -355 519 0 2463 0
2464 703 445 702 446 3 855 2 855 -390 595 -390 596 0 1095 0 1096 -22 0 c-32
0 -175 45 -269 85 -44 19 -97 38 -117 41 -31 4 -113 -8 -197 -31 -15 -4 -24 2
-35 27 -24 50 -61 71 -135 76 l-65 4 0 -1199z"/>
<path d="M24310 13418 c-146 -11 -211 -39 -268 -112 l-22 -29 0 -1105 0 -1105
390 -595 390 -595 -2 -870 -3 -870 -702 -445 -703 -446 0 -2448 0 -2449 355
-518 355 -519 2 -241 3 -241 50 38 c38 29 60 58 97 127 27 50 55 114 64 144
19 63 63 115 150 177 85 61 119 102 170 208 47 95 139 370 129 385 -3 5 -19
12 -35 16 -48 10 -45 22 16 61 103 66 179 92 319 110 39 5 56 13 83 41 56 60
60 72 92 256 32 191 37 266 18 300 -7 13 -12 65 -13 129 0 95 -2 110 -22 135
-38 48 -52 79 -55 124 -3 44 -3 44 33 47 32 3 52 19 173 147 l136 143 0 891 0
891 313 206 c171 113 316 210 321 215 5 5 4 14 -3 23 -10 11 -6 19 21 40 l33
27 -23 17 c-89 65 -87 61 -90 175 -3 95 -1 111 24 173 36 92 101 222 129 259
12 17 48 80 78 141 44 88 73 130 135 197 44 47 107 123 141 169 34 46 71 94
81 106 20 23 20 48 20 1445 l0 1422 -57 45 c-32 24 -123 99 -203 166 -122 102
-206 158 -302 202 -5 2 -8 -646 -8 -1441 l0 -1444 -1122 -720 -1123 -719 -3
-1177 c-2 -1075 -1 -1177 14 -1177 9 0 31 -15 50 -34 30 -30 34 -40 34 -84 0
-142 -185 -179 -236 -47 -13 36 -14 50 -4 79 12 37 61 86 86 86 12 0 14 170
16 1187 l3 1187 1125 721 1125 721 3 1447 2 1447 -65 197 c-47 146 -74 211
-101 248 -19 28 -44 67 -55 88 -17 33 -24 37 -57 37 -46 0 -102 36 -131 84
-34 54 -80 201 -96 306 -8 52 -19 109 -24 125 -6 19 -10 -608 -10 -1701 l-1
-1730 -752 -511 -753 -511 3 -40 c6 -76 -50 -142 -120 -142 -79 0 -128 49
-128 130 0 89 106 148 184 102 l35 -21 745 506 746 505 0 1780 0 1779 -25 54
c-23 48 -32 56 -98 89 -39 20 -79 42 -88 49 -9 7 -27 63 -43 137 -43 192 -55
223 -93 235 -53 18 -73 44 -150 205 -40 85 -85 178 -98 205 l-24 50 0 -413 -1
-412 23 -9 c13 -5 36 -24 50 -41 22 -25 27 -42 27 -82 0 -45 -4 -54 -36 -84
-30 -29 -43 -34 -84 -34 -134 0 -175 177 -54 235 l34 16 0 460 0 461 -96 119
c-56 70 -105 121 -118 125 -20 5 -25 16 -36 87 -18 120 -12 134 29 58 18 -35
55 -87 81 -116 26 -29 67 -80 91 -115 l44 -62 3 338 c1 185 1 339 -1 340 -2 2
-44 -10 -93 -27 -96 -33 -275 -52 -288 -31 -9 14 -9 53 -1 80 8 25 23 24 -155
10z m1947 -6963 c2 -6 -339 -223 -757 -484 l-760 -473 0 -727 0 -726 38 -16
c42 -18 72 -66 72 -117 0 -42 -39 -94 -84 -111 -33 -13 -44 -13 -79 0 -108 37
-116 193 -13 230 l36 13 0 741 0 740 758 472 c416 260 763 471 771 470 8 -1
16 -7 18 -12z"/>
<path d="M24892 13024 c3 -341 3 -347 24 -354 11 -5 26 -5 33 -1 9 6 49 253
51 313 0 4 11 18 25 30 l25 24 -35 54 c-19 30 -51 103 -71 162 -19 59 -40 110
-45 114 -6 3 -8 -129 -7 -342z"/>
<path d="M17009 12880 l-32 -40 -74 0 c-47 0 -85 -6 -104 -15 -34 -18 -147
-156 -161 -198 -6 -17 -33 -43 -69 -68 -79 -53 -126 -96 -161 -143 l-28 -39 0
-711 0 -711 -233 -340 c-128 -187 -274 -401 -325 -476 l-94 -136 31 -61 c37
-74 38 -92 7 -121 -14 -13 -30 -37 -37 -53 -12 -29 -11 -33 13 -53 18 -15 23
-26 17 -36 -17 -26 -9 -47 36 -97 55 -61 92 -78 136 -63 51 18 52 16 46 -60
-6 -66 -4 -73 18 -95 13 -13 33 -24 44 -24 26 0 41 -28 41 -76 0 -33 8 -44 69
-101 38 -35 72 -76 76 -91 3 -14 22 -43 41 -64 29 -33 34 -45 34 -89 0 -30 7
-63 17 -80 14 -23 15 -35 7 -57 -11 -29 -8 -52 7 -52 5 0 9 244 9 603 l0 602
355 519 355 519 0 974 c0 535 -2 973 -5 973 -2 0 -19 -18 -36 -40z"/>
<path d="M16277 12192 c-67 -44 -76 -55 -112 -147 -54 -135 -85 -187 -152
-249 -73 -68 -105 -123 -122 -211 -7 -33 -19 -88 -28 -122 l-15 -62 36 -44
c71 -87 77 -131 37 -264 l-19 -62 25 -48 c21 -40 24 -57 18 -104 -9 -84 -42
-214 -69 -272 -14 -29 -30 -83 -36 -122 -13 -81 -62 -182 -132 -269 -27 -33
-48 -68 -48 -78 0 -28 40 -102 50 -92 5 5 148 214 319 464 l311 455 0 633 c0
347 -1 632 -3 632 -1 0 -28 -17 -60 -38z"/>
<path d="M26730 8392 l0 -1383 20 14 c11 8 139 121 285 252 l265 238 0 910 0
909 -22 -16 c-51 -36 -80 -46 -140 -48 -54 -1 -73 3 -124 31 -80 42 -122 100
-158 216 -33 106 -75 200 -104 235 l-21 25 -1 -1383z"/>
<path d="M28183 9577 l-83 -62 0 -359 c0 -198 2 -357 5 -355 2 3 33 79 68 169
153 393 184 537 134 624 -12 22 -26 41 -32 42 -5 1 -47 -25 -92 -59z"/>
<path d="M28028 9484 c-4 -3 -66 -21 -140 -40 -114 -30 -147 -35 -233 -33
-108 2 -124 -2 -168 -49 -27 -28 -32 -30 -88 -25 l-59 6 0 -892 0 -892 46 37
c122 100 320 373 476 654 38 68 78 134 89 146 11 12 23 43 28 70 4 27 24 88
44 137 l37 87 0 400 c0 327 -2 400 -13 400 -8 0 -16 -3 -19 -6z"/>
<path d="M19332 7399 c-53 -10 -101 -39 -140 -83 -94 -107 -77 -287 33 -372
108 -82 267 -68 354 31 48 55 64 100 64 175 0 165 -146 282 -311 249z m136
-45 c140 -58 186 -232 91 -347 -86 -104 -233 -111 -328 -16 -140 141 -43 375
157 378 23 1 59 -6 80 -15z"/>
<path d="M19246 7183 c-6 -14 -5 -15 5 -6 7 7 10 15 7 18 -3 3 -9 -2 -12 -12z"/>
<path d="M19288 7130 c-2 -48 0 -60 12 -60 12 0 14 12 12 60 -2 33 -7 60 -12
60 -5 0 -10 -27 -12 -60z"/>
<path d="M19392 7183 c2 -5 14 -32 27 -62 l24 -53 14 27 c8 15 12 29 9 33 -3
3 -6 0 -6 -6 0 -25 -18 -10 -35 28 -10 22 -22 40 -27 40 -5 0 -8 -3 -6 -7z"/>
<path d="M19486 7174 c-3 -8 -2 -12 4 -9 6 4 10 -12 10 -39 0 -26 -5 -46 -12
-49 -7 -3 1 -5 17 -5 17 0 24 2 18 5 -8 3 -13 25 -13 59 0 52 -11 71 -24 38z"/>
<path d="M19378 7098 c-4 -24 -2 -28 16 -28 13 0 16 3 10 8 -7 4 -14 16 -16
27 -3 17 -5 15 -10 -7z"/>
<path d="M9763 6770 c-162 -21 -322 -73 -450 -148 -340 -198 -557 -516 -618
-907 -23 -146 -16 -435 13 -573 58 -268 169 -472 351 -651 232 -227 499 -335
826 -335 329 0 577 100 812 327 215 207 328 414 385 701 29 148 31 424 4 566
-51 265 -156 468 -340 658 -181 187 -364 294 -587 343 -104 23 -294 32 -396
19z m338 -155 c210 -68 380 -238 470 -470 84 -215 113 -406 112 -725 0 -193
-4 -256 -21 -350 -74 -408 -250 -651 -542 -750 -91 -31 -307 -40 -400 -16
-119 30 -206 81 -305 181 -95 96 -136 156 -190 282 -84 195 -116 366 -122 658
-6 245 8 389 51 556 102 392 341 632 653 658 102 8 227 -2 294 -24z"/>
<path d="M9821 5608 c-58 -30 -83 -65 -89 -127 -5 -61 10 -102 50 -136 70 -59
155 -55 218 10 30 31 35 43 38 98 3 52 0 67 -20 96 -52 76 -123 97 -197 59z"/>
<path d="M15257 6743 c-4 -7 -1049 -2462 -1064 -2500 -4 -10 16 -13 80 -13
l85 0 121 288 c94 221 137 309 186 383 71 106 203 240 304 308 120 82 275 140
416 157 l60 7 -43 19 c-137 61 -415 66 -524 11 -16 -7 -28 -12 -28 -11 1 20
339 772 346 768 5 -2 151 -344 324 -760 174 -415 333 -788 354 -828 46 -85
144 -195 221 -246 114 -76 286 -116 439 -101 l76 7 0 32 c0 33 -1 33 -57 40
-132 15 -229 98 -313 269 -28 56 -243 568 -479 1137 l-428 1035 -36 3 c-19 2
-37 -1 -40 -5z"/>
<path d="M120 5470 l0 -1240 80 0 80 0 2 1035 3 1036 475 -1036 475 -1036 30
3 c29 3 37 20 452 923 232 506 446 970 475 1030 l53 110 6 -970 c6 -1043 6
-1037 59 -1180 81 -214 244 -316 533 -332 l108 -6 -3 34 c-3 32 -5 34 -51 41
-133 19 -222 130 -270 340 -21 92 -21 108 -24 1291 l-4 1197 -177 -2 -177 -3
-430 -947 c-237 -522 -435 -955 -440 -964 -8 -12 -113 206 -456 948 l-447 963
-176 3 -176 2 0 -1240z"/>
<path d="M3665 6700 c-300 -12 -319 -33 -335 -375 -5 -104 -9 -200 -10 -212 0
-19 5 -23 33 -23 l32 0 22 105 c35 172 91 268 180 310 90 43 129 47 611 52
254 3 462 3 462 0 0 -3 -351 -512 -780 -1131 -676 -975 -780 -1130 -780 -1160
l0 -36 985 0 985 0 0 75 0 75 -745 0 c-453 0 -745 4 -745 9 0 5 358 527 795
1160 437 632 795 1152 795 1155 0 8 -1291 4 -1505 -4z"/>
<path d="M6340 6670 l0 -40 78 0 c141 0 227 -50 253 -147 9 -37 13 -304 16
-1150 l4 -1103 829 0 830 0 0 80 0 79 -597 3 c-683 3 -652 0 -695 86 l-23 47
-5 975 -5 975 -23 67 c-27 80 -62 124 -117 149 -35 16 -69 19 -292 19 l-253 0
0 -40z"/>
<path d="M11270 6675 l0 -35 83 0 c151 -1 228 -51 257 -167 9 -35 15 -259 20
-798 7 -752 11 -822 46 -945 57 -197 205 -371 388 -456 274 -126 785 -125
1039 2 132 66 275 200 335 311 36 68 65 168 88 303 14 82 17 218 21 958 l4
862 -85 0 -86 0 0 -822 c0 -818 -4 -927 -36 -1078 -31 -143 -111 -253 -256
-347 -118 -78 -313 -133 -467 -133 -95 0 -223 29 -308 70 -182 86 -266 215
-309 472 -15 90 -18 211 -23 946 l-6 844 -28 24 -28 24 -325 0 -324 0 0 -35z"/>
<path d="M16730 6676 l0 -33 78 -6 c95 -7 157 -28 201 -70 65 -62 61 13 61
-1217 l0 -1120 175 0 175 0 2 608 3 607 413 3 412 2 0 75 0 75 -415 0 -415 0
0 486 0 486 373 -4 c319 -4 380 -7 427 -22 81 -26 146 -73 190 -139 37 -55
100 -200 100 -232 0 -8 9 -15 20 -15 20 0 20 7 20 275 l0 275 -910 0 -910 0 0
-34z"/>
<path d="M19202 5598 c4 -1002 6 -1118 21 -1164 32 -99 83 -149 181 -180 37
-12 107 -18 264 -21 l212 -5 0 35 0 35 -88 4 c-74 3 -98 9 -148 35 -82 42 -95
68 -105 206 -4 62 -8 574 -8 1140 l-1 1027 -166 0 -166 0 4 -1112z"/>
<path d="M25858 5385 l-308 -204 0 -862 0 -862 73 70 c93 90 109 99 185 107
75 7 140 38 210 101 78 70 178 200 222 289 37 72 40 85 40 160 0 46 7 132 16
192 8 60 17 168 19 239 2 72 9 146 15 165 6 19 17 66 25 105 11 58 11 73 0 96
-21 39 -80 87 -118 94 l-33 7 0 111 c1 103 -1 116 -26 164 -35 65 -35 93 -1
152 26 47 27 82 1 80 -7 0 -151 -92 -320 -204z"/>
<path d="M27920 4563 c-16 -20 -33 -29 -63 -33 l-42 -5 -3 -77 c-2 -60 -6 -78
-17 -78 -8 0 -21 -12 -28 -27 l-14 -27 -12 22 c-8 16 -21 22 -45 22 l-34 0 -4
-95 -3 -94 -47 -48 c-27 -27 -48 -56 -48 -65 0 -16 -140 -117 -184 -134 -14
-6 -16 -45 -16 -388 l0 -381 32 -15 c100 -47 96 -173 -6 -224 -32 -16 -44 -17
-76 -7 -58 17 -90 61 -90 123 0 44 4 54 34 84 19 19 41 34 50 34 14 0 16 38
16 375 0 367 0 375 -19 365 -11 -5 -21 -14 -23 -20 -1 -5 -57 -17 -123 -25
-66 -8 -130 -19 -142 -25 -28 -12 -89 -121 -124 -224 -34 -96 -37 -187 -14
-361 26 -193 29 -181 -84 -351 -54 -82 -111 -165 -125 -185 l-27 -36 16 -109
c9 -60 25 -148 37 -196 l21 -87 -22 -52 c-15 -37 -21 -73 -21 -126 0 -82 -3
-76 89 -145 28 -21 49 -46 56 -68 11 -32 16 -36 62 -44 48 -8 52 -7 97 28 44
33 53 36 117 36 l69 0 69 93 c189 256 210 300 421 912 70 204 164 469 208 590
44 121 88 250 98 288 10 37 23 67 29 67 5 0 16 -14 24 -31 7 -17 20 -33 28
-36 17 -7 58 30 73 66 11 27 9 163 -5 389 -6 90 -7 94 -36 110 -27 16 -29 21
-29 75 0 54 -4 63 -42 113 -24 30 -46 54 -50 54 -3 0 -16 -12 -28 -27z"/>
<path d="M7547 3479 c-102 -16 -157 -75 -157 -169 0 -87 23 -114 154 -180 112
-57 135 -80 136 -133 0 -63 -61 -117 -133 -117 -23 0 -108 21 -138 34 -13 5
-19 -1 -28 -25 -6 -18 -11 -33 -11 -34 0 -2 17 -10 38 -18 56 -22 131 -29 192
-17 106 20 160 83 160 186 0 93 -30 126 -172 192 -93 43 -118 69 -118 120 0
43 43 88 94 97 32 6 92 -3 139 -20 10 -4 18 4 26 26 6 18 11 33 11 35 0 6 -67
22 -105 26 -22 3 -61 1 -88 -3z"/>
<path d="M9793 3480 c-89 -18 -159 -77 -201 -169 -38 -81 -43 -222 -12 -305
27 -72 85 -137 148 -168 71 -34 178 -32 254 5 66 32 101 70 137 147 23 49 26
67 26 165 0 125 -16 173 -79 243 -60 67 -177 102 -273 82z m167 -95 c21 -14
50 -49 66 -78 27 -48 29 -60 29 -157 0 -98 -2 -109 -30 -159 -91 -164 -294
-142 -361 40 -22 61 -22 171 0 238 21 62 79 125 128 140 51 16 126 5 168 -24z"/>
<path d="M13217 3479 c-81 -13 -144 -73 -154 -147 -12 -86 44 -159 155 -203
116 -45 158 -102 128 -172 -29 -71 -109 -92 -216 -58 -35 11 -65 19 -67 17 -2
-1 -6 -17 -9 -34 -6 -28 -3 -33 22 -43 62 -23 141 -31 197 -19 112 23 170 92
164 193 -5 87 -50 134 -177 186 -95 40 -130 86 -110 147 16 48 54 69 125 68
33 0 71 -6 84 -13 26 -15 37 -8 46 30 6 24 3 28 -27 37 -50 15 -107 19 -161
11z"/>
<path d="M15047 3479 c-102 -16 -157 -75 -157 -169 0 -87 23 -114 154 -180
112 -57 135 -80 136 -133 0 -63 -61 -117 -133 -117 -23 0 -108 21 -138 34 -13
5 -19 -1 -28 -25 -6 -18 -11 -33 -11 -34 0 -2 17 -10 38 -18 56 -22 131 -29
192 -17 106 20 160 83 160 186 0 93 -30 126 -172 192 -93 43 -118 69 -118 120
0 43 43 88 94 97 32 6 92 -3 139 -20 10 -4 18 4 26 26 6 18 11 33 11 35 0 6
-67 22 -105 26 -22 3 -61 1 -88 -3z"/>
<path d="M15527 3479 c-102 -16 -157 -75 -157 -169 0 -87 23 -114 154 -180
112 -57 135 -80 136 -133 0 -63 -61 -117 -133 -117 -23 0 -108 21 -138 34 -13
5 -19 -1 -28 -25 -6 -18 -11 -33 -11 -34 0 -2 17 -10 38 -18 56 -22 131 -29
192 -17 106 20 160 83 160 186 0 93 -30 126 -172 192 -93 43 -118 69 -118 120
0 43 43 88 94 97 32 6 92 -3 139 -20 10 -4 18 4 26 26 6 18 11 33 11 35 0 6
-67 22 -105 26 -22 3 -61 1 -88 -3z"/>
<path d="M4013 3473 l-33 -4 0 -326 0 -325 143 4 c130 3 147 6 205 32 114 52
172 143 180 282 6 109 -15 180 -71 241 -48 52 -91 76 -165 92 -50 10 -189 13
-259 4z m294 -92 c23 -11 54 -37 69 -57 72 -94 57 -292 -28 -371 -52 -49 -185
-84 -257 -68 l-31 7 0 258 0 259 48 3 c74 5 154 -7 199 -31z"/>
<path d="M4620 3150 l0 -330 40 0 40 0 0 330 0 330 -40 0 -40 0 0 -330z"/>
<path d="M5064 3471 c-89 -22 -169 -86 -216 -173 -20 -37 -23 -57 -23 -153 0
-96 3 -116 24 -159 13 -26 40 -64 59 -83 63 -63 110 -78 247 -78 74 0 134 5
158 13 l37 14 0 154 0 154 -105 0 -105 0 0 -30 0 -30 65 0 65 0 0 -99 c0 -116
2 -114 -113 -113 -135 1 -223 74 -247 205 -27 142 45 272 169 307 48 13 150
13 190 -1 36 -13 46 -7 56 32 6 26 4 28 -45 38 -56 12 -168 13 -216 2z"/>
<path d="M5480 3150 l0 -330 40 0 40 0 0 330 0 330 -40 0 -40 0 0 -330z"/>
<path d="M5640 3445 l0 -34 98 -3 97 -3 3 -292 2 -293 40 0 40 0 0 295 0 295
100 0 100 0 0 35 0 35 -240 0 -240 0 0 -35z"/>
<path d="M6296 3471 c-11 -17 -216 -623 -216 -637 0 -10 13 -14 39 -14 l39 0
34 103 35 102 115 3 116 3 34 -103 35 -103 46 -3 47 -3 -109 320 c-60 176
-112 325 -116 331 -8 12 -92 13 -99 1z m96 -231 c22 -69 43 -131 45 -137 4
-10 -18 -13 -91 -13 -67 0 -96 4 -96 12 0 6 16 57 35 112 19 56 40 121 46 146
9 31 14 39 17 25 2 -11 22 -76 44 -145z"/>
<path d="M6720 3150 l0 -330 180 0 180 0 0 35 0 35 -140 0 -140 0 0 295 0 295
-40 0 -40 0 0 -330z"/>
<path d="M7170 3150 l0 -330 45 0 45 0 0 330 0 330 -45 0 -45 0 0 -330z"/>
<path d="M7880 3150 l0 -330 185 0 185 0 0 35 0 35 -140 0 -140 0 0 120 0 120
125 0 125 0 0 35 0 35 -125 0 -125 0 0 105 0 105 135 0 135 0 0 35 0 35 -180
0 -180 0 0 -330z"/>
<path d="M8393 3473 l-33 -4 0 -325 0 -324 40 0 39 0 3 143 3 142 40 3 c55 4
114 -17 138 -50 11 -14 31 -73 46 -130 l26 -103 43 -3 c23 -2 42 -1 42 2 0 3
-12 52 -26 108 -28 113 -63 183 -95 193 -18 6 -15 10 24 35 107 67 103 229 -6
291 -35 19 -58 23 -147 25 -58 1 -120 0 -137 -3z m192 -64 c64 -16 90 -49 90
-114 0 -87 -52 -125 -170 -125 l-65 0 0 115 c0 111 1 116 23 125 31 12 70 12
122 -1z"/>
<path d="M8990 3468 c0 -7 47 -155 103 -328 l103 -315 48 0 48 0 114 319 c63
176 114 323 114 328 0 4 -18 8 -41 8 -36 0 -41 -3 -53 -32 -11 -26 -153 -450
-174 -518 -2 -8 -15 23 -29 70 -34 117 -143 462 -149 472 -9 13 -84 10 -84 -4z"/>
<path d="M10170 3445 l0 -35 95 0 95 0 0 -295 0 -295 45 0 45 0 0 295 0 295
100 0 100 0 0 35 0 35 -240 0 -240 0 0 -35z"/>
<path d="M10753 3473 l-33 -4 0 -325 0 -324 40 0 39 0 3 143 3 142 40 3 c55 4
114 -17 138 -50 11 -14 31 -73 46 -130 l26 -103 43 -3 c23 -2 42 -1 42 2 0 3
-12 52 -26 108 -28 113 -63 183 -95 193 -18 6 -15 10 24 35 107 67 103 229 -6
291 -35 19 -58 23 -147 25 -58 1 -120 0 -137 -3z m192 -64 c64 -16 90 -49 90
-114 0 -87 -52 -125 -170 -125 l-65 0 0 115 c0 111 1 116 23 125 31 12 70 12
122 -1z"/>
<path d="M11240 3150 l0 -330 185 0 185 0 0 35 0 34 -142 3 -143 3 -3 118 -3
117 131 0 130 0 0 35 0 35 -130 0 -131 0 3 103 3 102 133 3 132 3 0 34 0 35
-175 0 -175 0 0 -330z"/>
<path d="M11952 3473 l-32 -4 2 -322 3 -322 130 0 c116 0 135 3 177 23 68 33
92 72 96 152 3 55 0 70 -20 99 -12 19 -42 44 -66 56 l-43 22 31 13 c42 17 72
64 77 119 6 61 -21 109 -78 141 -38 21 -58 25 -144 26 -55 1 -115 0 -133 -3z
m220 -73 c34 -16 61 -72 53 -109 -12 -57 -72 -91 -161 -91 l-54 0 0 104 c0 74
4 106 13 110 19 9 119 -1 149 -14z m5 -283 c50 -26 68 -55 68 -107 0 -40 -5
-54 -29 -79 -32 -33 -106 -55 -166 -49 l-35 3 -3 129 -3 129 70 -6 c38 -3 82
-12 98 -20z"/>
<path d="M12453 3238 c2 -155 8 -257 16 -282 7 -21 32 -57 56 -81 105 -106
304 -74 374 60 26 49 26 53 29 298 l4 247 -40 0 -40 0 -4 -237 c-3 -225 -4
-240 -26 -280 -28 -54 -60 -75 -120 -80 -65 -6 -110 20 -142 83 -24 47 -25 56
-29 281 l-3 233 -40 0 -40 0 5 -242z"/>
<path d="M13560 3150 l0 -330 40 0 40 0 0 330 0 330 -40 0 -40 0 0 -330z"/>
<path d="M13790 3150 l0 -330 41 0 42 0 -5 274 -4 275 48 -86 c26 -47 101
-171 165 -274 l118 -189 43 0 42 0 0 330 0 330 -41 0 -41 0 4 -268 3 -269 -50
91 c-28 50 -102 171 -164 269 l-112 177 -45 0 -44 0 0 -330z"/>
<path d="M14430 3150 l0 -330 180 0 180 0 0 35 0 35 -140 0 -140 0 0 120 0
120 125 0 125 0 0 35 0 35 -125 0 -125 0 0 105 0 105 135 0 135 0 0 35 0 35
-175 0 -175 0 0 -330z"/>
</g>
</svg>
